<svg width="46" height="46" fill="#5a98b4" viewBox="0 0 24 24" xmlns="http://www.w3.org/2000/svg">
  <path d="M21 6.422a7.36 7.36 0 0 1-2.121.58 3.706 3.706 0 0 0 1.623-2.042 7.442 7.442 0 0 1-2.344.896 3.693 3.693 0 0 0-6.293 3.367 10.468 10.468 0 0 1-7.611-3.859 3.664 3.664 0 0 0-.501 1.858c0 1.28.65 2.41 1.643 3.073a3.67 3.67 0 0 1-1.672-.463v.047A3.691 3.691 0 0 0 6.686 13.5a3.675 3.675 0 0 1-1.667.065 3.7 3.7 0 0 0 3.448 2.566A7.407 7.407 0 0 1 3 17.657a10.442 10.442 0 0 0 5.66 1.661c6.794 0 10.509-5.628 10.509-10.508 0-.159-.006-.32-.012-.478A7.564 7.564 0 0 0 21 6.422Z"></path>
</svg>